<svg width="13" height="12" viewBox="0 0 13 12" fill="none" xmlns="http://www.w3.org/2000/svg">
<path d="M11.4769 5.32129H7.11466V1.24986C7.11466 1.06989 7.03806 0.897295 6.90171 0.770038C6.76536 0.642781 6.58044 0.571289 6.38761 0.571289C6.19479 0.571289 6.00987 0.642781 5.87352 0.770038C5.73717 0.897295 5.66057 1.06989 5.66057 1.24986V5.32129H1.29833C1.10551 5.32129 0.920581 5.39278 0.784234 5.52004C0.647888 5.6473 0.571289 5.81989 0.571289 5.99986C0.571289 6.17983 0.647888 6.35243 0.784234 6.47968C0.920581 6.60694 1.10551 6.67843 1.29833 6.67843H5.66057V10.7499C5.66057 10.9298 5.73717 11.1024 5.87352 11.2297C6.00987 11.3569 6.19479 11.4284 6.38761 11.4284C6.58044 11.4284 6.76536 11.3569 6.90171 11.2297C7.03806 11.1024 7.11466 10.9298 7.11466 10.7499V6.67843H11.4769C11.6697 6.67843 11.8546 6.60694 11.991 6.47968C12.1273 6.35243 12.2039 6.17983 12.2039 5.99986C12.2039 5.81989 12.1273 5.6473 11.991 5.52004C11.8546 5.39278 11.6697 5.32129 11.4769 5.32129Z" fill="#FE5F00"/>
</svg>
